<svg style="vertical-align:-.025ex" xmlns="http://www.w3.org/2000/svg" width="2.277ex" height="2.025ex"
    viewBox="0 -883.9 1006.6 894.9" xmlns:xlink="http://www.w3.org/1999/xlink">
    <defs>
        <path id="a"
            d="M132-11q-34 0-34 33v11l13 28q75 158 109 273l8 24h-32q-38 0-54-3t-39-19q-11-7-22-18t-19-21-9-12q-2-1-15-1-19 0-19 10 0 6 19 35t55 62 71 38q7 2 225 2 160 0 164-1 20-7 20-28 0-31-32-42-6-2-69-2h-64l-3-17q-12-72-12-119 0-52 9-93t19-64 10-28q0-17-14-32t-36-15q-11 0-18 3t-16 24-16 60q-1 9-1 44 0 49 9 105t18 92 10 40h-98l-1-4q0-3-19-79t-43-161-31-97q-11-28-43-28Z" />
        <path id="b"
            d="M96 585q56 81 153 81 48 0 96-26t78-92q37-83 37-228 0-155-43-237-20-42-55-67t-61-31-51-7q-26 0-52 6t-61 32-55 67q-43 82-43 237 0 174 57 265Zm225 12q-30 32-71 32-42 0-72-32-25-26-33-72t-8-192q0-158 8-208t36-79q28-30 69-30 40 0 68 30 29 30 36 84t8 203q0 145-8 191t-33 73Z" />
    </defs>
    <g stroke="currentColor" fill="white" stroke-width="0">
        <g>
            <use data-c="1D70B" xlink:href="#a" transform="scale(1 -1)" />
            <g data-mjx-texclass="ORD">
                <use data-c="30" xlink:href="#b" transform="scale(1 -1) matrix(.707 0 0 .707 603 413)" />
            </g>
        </g>
    </g>
</svg>